# xmcd CD database file
# Copyright (C) 1997 Ti Kan
# 
# Track frame offsets:
#     150
#     14675
#     25972
#     37777
#     49147
#     63260
#     77252
#     89437
#     101237
#     111310
# 
# Disc length: 1648 seconds
# 
# Revision: 1
# Processed by: cddbd v1.4b41PL1 Copyright (c) Steve Scherf et al.
# Submitted via: DiscPlay 4.0.4
# 
DISCID=78066e0a
DTITLE=Osborne Brothers - Our Favorite Hymns
DYEAR=1900
DGENRE=
TTITLE0=How Great Thou Art
TTITLE1=I Bowed On My Knees And Cried Holy
TTITLE2=I Pray My Way Out Of Trouble
TTITLE3=Light At The River
TTITLE4=Rock Of Ages
TTITLE5=What A Friend We Have In Jesus
TTITLE6=Will You Meet Me Over Yonder
TTITLE7=Medals For Mothers
TTITLE8=Will You Be Loving Another Man
TTITLE9=Steal Away And Pray
EXTD=
EXTT0=
EXTT1=
EXTT2=
EXTT3=
EXTT4=
EXTT5=
EXTT6=
EXTT7=
EXTT8=
EXTT9=
PLAYORDER=
